<svg xmlns="http://www.w3.org/2000/svg" xml:space="preserve" fill-rule="evenodd" stroke-linejoin="round" stroke-miterlimit="2" clip-rule="evenodd" viewBox="0 0 108 108">
  <path fill="none" d="M0-.0006h107.992v107.992H0z"/>
  <path fill="#007aff" fill-rule="nonzero" d="M107.993 100.7025c.0237.0254-16.649 4.45-33.3015-10.5664-2.1143-1.9064-2.0906-9.7315-2.1903-12.4729-.4378-11.9776 14.3793-23.9317 20.1915-23.663v22.2704c0 8.1327 1.2912 18.018 15.3004 24.432"/>
  <path fill="#007aff" d="M92.6659 52.6767v2.6371c0 25.3965-20.6208 46.0151-46.0017 46.0151h-.66c-25.401 0-46.0218-20.6186-46.0218-46.015v-2.6372c0-25.3964 20.6208-46.015 46.0218-46.015h.66c25.381 0 46.0017 20.6186 46.0017 46.015"/>
</svg>
